# xmcd CD database file generated by Grip 2.94
# 
# Track frame offsets:
#       150
#       15513
#       29501
#       42716
#       56606
#       71014
#       86235
#       101366
#       111014
#       120661
#       136692
#       153199
#       168359
#       181587
#       193790
#       205319
#       219532
#       230971
#       243495
#       253760
#       266303
#       279765
#       294516
#       308553
# 
# Disc length: 4270 seconds
# 
# Revision: 3
# Processed by: cddbd v1.4b41PL1 Copyright (c) Steve Scherf et al.
# Submitted via: Grip 2.94
# 
DISCID=5410ac18
DTITLE=Muddy Waters - Greatest Hits
DYEAR=1900
DGENRE=
TTITLE0=Country Blues
TTITLE1=I Be's Troubled
TTITLE2=Burr Clover Farm Blues
TTITLE3=Take a Walk With Me
TTITLE4=Burr Clover Farm Blues (2)
TTITLE5=I Be Bound To Write To You
TTITLE6=You're Gonna Miss Me When I'm Gone
TTITLE7=You Got To Take Sick And Die Some Of These Days
TTITLE8=Why Don't You Live So God Can Use You
TTITLE9=Country Blues (2)
TTITLE10=You're Gonna Miss Me When I'm Gone (2)
TTITLE11=32-20 Blues
TTITLE12=Walking Blues
TTITLE13=I Can't Be Satisfied
TTITLE14=Gypsy Woman
TTITLE15=I Feel Like Going Home
TTITLE16=Little Anna Mae
TTITLE17=Train Fare Blues
TTITLE18=Mean Red Spider
TTITLE19=Little Geneva
TTITLE20=Rollin' And Tumblin'
TTITLE21=Streamline Woman
TTITLE22=Rollin' Stone
TTITLE23=You're Gonna Miss Me
EXTD=
EXTT0=
EXTT1=
EXTT2=
EXTT3=
EXTT4=
EXTT5=
EXTT6=
EXTT7=
EXTT8=
EXTT9=
EXTT10=
EXTT11=
EXTT12=
EXTT13=
EXTT14=
EXTT15=
EXTT16=
EXTT17=
EXTT18=
EXTT19=
EXTT20=
EXTT21=
EXTT22=
EXTT23=
PLAYORDER=
